<svg width="65" height="65" viewBox="0 0 65 65" fill="none" xmlns="http://www.w3.org/2000/svg">
    <g id="GitHub ">
        <rect id="Rectangle 36" x="19" y="24.7109" width="26.1641" height="26.1641" rx="13.0821"
            transform="rotate(-14.8625 19 24.7109)" fill="url(#paint0_linear_5_54)" />
        <g id="Rectangle 37" filter="url(#filter0_f_5_54)">
            <rect x="22.4667" y="26.5879" width="15.8075" height="15.8075" rx="7.90375"
                transform="rotate(-14.8625 22.4667 26.5879)" fill="#181818" />
        </g>
        <g id="Rectangle 38" filter="url(#filter1_b_5_54)">
            <rect x="26.405" y="25.4048" width="24.595" height="24.595" rx="12.2975"
                fill="url(#paint1_linear_5_54)" fill-opacity="0.4" />
            <rect x="25.905" y="24.9048" width="25.595" height="25.595" rx="12.7975"
                stroke="url(#paint2_linear_5_54)" />
        </g>
        <g id="GitHub Logomark" filter="url(#filter2_bd_5_54)">
            <path fill-rule="evenodd" clip-rule="evenodd"
                d="M38.7076 31.4878C35.2681 31.4878 32.4876 34.3363 32.4876 37.8602C32.4876 40.6771 34.2692 43.0615 36.7407 43.9055C37.0497 43.9689 37.1629 43.7683 37.1629 43.5996C37.1629 43.4519 37.1527 42.9455 37.1527 42.4179C35.4224 42.7978 35.0621 41.6583 35.0621 41.6583C34.7841 40.9197 34.3721 40.7299 34.3721 40.7299C33.8057 40.3396 34.4133 40.3396 34.4133 40.3396C35.0415 40.3818 35.3711 40.9937 35.3711 40.9937C35.9271 41.9642 36.8231 41.69 37.1835 41.5212C37.2349 41.1097 37.3998 40.8248 37.5749 40.6666C36.1949 40.5189 34.7429 39.9703 34.7429 37.5225C34.7429 36.8262 34.9899 36.2565 35.3813 35.8135C35.3196 35.6552 35.1032 35.001 35.4432 34.1253C35.4432 34.1253 35.9684 33.9565 37.1526 34.7795C37.6596 34.64 38.1824 34.569 38.7076 34.5684C39.2328 34.5684 39.7682 34.6423 40.2626 34.7795C41.4469 33.9565 41.9721 34.1253 41.9721 34.1253C42.312 35.001 42.0956 35.6552 42.0338 35.8135C42.4355 36.2565 42.6723 36.8262 42.6723 37.5225C42.6723 39.9703 41.2204 40.5083 39.8301 40.6666C40.0567 40.867 40.2523 41.2468 40.2523 41.8482C40.2523 42.7027 40.2421 43.3886 40.2421 43.5995C40.2421 43.7683 40.3554 43.9689 40.6643 43.9056C43.1358 43.0614 44.9173 40.6771 44.9173 37.8602C44.9275 34.3363 42.1368 31.4878 38.7076 31.4878Z"
                fill="url(#paint3_linear_5_54)" shape-rendering="crispEdges" />
            <path
                d="M36.9533 42.6585C36.1767 42.7774 35.6634 42.5923 35.3361 42.3386C35.1597 42.2019 35.045 42.0512 34.9742 41.9336C34.9387 41.8748 34.9139 41.8238 34.8976 41.7863C34.8894 41.7675 34.8833 41.752 34.8791 41.7405L34.874 41.7263L34.8737 41.7253C34.7447 41.3841 34.588 41.1769 34.4704 41.0575C34.4111 40.9974 34.3609 40.9588 34.328 40.9363C34.3115 40.925 34.2993 40.9178 34.2924 40.9139L34.2863 40.9106L34.2727 40.9044L34.2585 40.8946C34.1146 40.7954 34.0016 40.694 33.9547 40.5806C33.9274 40.5145 33.9193 40.4355 33.9516 40.3579C33.9817 40.2857 34.0356 40.242 34.0772 40.217C34.1556 40.1698 34.2493 40.1539 34.3021 40.1472C34.3324 40.1434 34.3592 40.1415 34.3785 40.1406C34.3882 40.1401 34.3963 40.1398 34.4022 40.1397L34.4095 40.1396L34.4118 40.1396L34.4127 40.1396L34.413 40.1396H34.4132C34.4132 40.1396 34.4133 40.1396 34.4133 40.3396V40.1396H34.4267L34.4267 40.14C34.8056 40.1655 35.0875 40.3624 35.268 40.5398C35.359 40.6293 35.4275 40.717 35.4735 40.7825C35.4966 40.8154 35.5143 40.8432 35.5265 40.8633C35.5327 40.8733 35.5375 40.8815 35.5409 40.8875L35.5451 40.8949L35.5464 40.8973L35.5468 40.8982L35.547 40.8985L35.5471 40.8987C35.5472 40.8987 35.5472 40.8988 35.3711 40.9937L35.5447 40.8942C35.7904 41.3232 36.0957 41.46 36.3693 41.4855C36.6069 41.5078 36.8366 41.4469 37.0026 41.3814C37.0423 41.1614 37.1131 40.9731 37.2022 40.8187C36.6053 40.7221 35.9968 40.5275 35.5108 40.1086C34.9203 39.5995 34.5429 38.7884 34.5429 37.5225C34.5429 36.8211 34.7776 36.2353 35.1551 35.771C35.0676 35.4865 34.9461 34.8531 35.2567 34.053L35.2912 33.9641L35.382 33.9349L35.4432 34.1253C35.382 33.9349 35.3822 33.9349 35.3824 33.9348L35.3828 33.9347L35.3836 33.9344L35.3855 33.9339L35.3898 33.9326L35.4008 33.9296C35.4092 33.9275 35.4198 33.9252 35.4325 33.9229C35.4581 33.9183 35.4921 33.9139 35.535 33.912C35.6208 33.9083 35.7407 33.9146 35.8962 33.9484C36.1938 34.013 36.6202 34.1777 37.1898 34.5625C37.6857 34.4342 38.1954 34.369 38.7074 34.3684L38.7076 34.3684C39.219 34.3684 39.7394 34.4361 40.2255 34.5624C40.7951 34.1776 41.2214 34.013 41.519 33.9484C41.6746 33.9146 41.7944 33.9083 41.8803 33.912C41.9231 33.9139 41.9572 33.9183 41.9827 33.9229C41.9955 33.9252 42.006 33.9275 42.0145 33.9296L42.0255 33.9326L42.0298 33.9339L42.0316 33.9344L42.0325 33.9347L42.0329 33.9348C42.0331 33.9349 42.0333 33.9349 41.9721 34.1253L36.9533 42.6585ZM36.9533 42.6585C36.9543 42.8373 36.956 43.007 36.9578 43.1536C36.9586 43.2199 36.9594 43.2812 36.9601 43.3363C36.9617 43.4581 36.9629 43.5499 36.9629 43.5996C36.9629 43.6446 36.9471 43.6783 36.9302 43.6943C36.9215 43.7026 36.8894 43.7292 36.7924 43.7118C34.4084 42.8915 32.6876 40.5865 32.6876 37.8602C32.6876 34.4421 35.3831 31.6878 38.7076 31.6878C42.0221 31.6878 44.7272 34.4423 44.7173 37.8596V37.8602C44.7173 40.5865 42.9966 42.8914 40.6126 43.7119C40.5157 43.7293 40.4836 43.7027 40.4748 43.6943C40.4578 43.6783 40.4421 43.6445 40.4421 43.5995C40.4421 43.5304 40.4432 43.4097 40.4447 43.2472C40.4454 43.1642 40.4463 43.0704 40.4472 42.9669C40.4497 42.662 40.4523 42.2763 40.4523 41.8482C40.4523 41.4116 40.3556 41.0688 40.2065 40.8163L36.9533 42.6585Z"
                stroke="url(#paint4_linear_5_54)" stroke-width="0.4" shape-rendering="crispEdges" />
        </g>
    </g>
    <defs>
        <filter id="filter0_f_5_54" x="0.227631" y="0.294434" width="63.8114" height="63.811"
            filterUnits="userSpaceOnUse" color-interpolation-filters="sRGB">
            <feFlood flood-opacity="0" result="BackgroundImageFix" />
            <feBlend mode="normal" in="SourceGraphic" in2="BackgroundImageFix" result="shape" />
            <feGaussianBlur stdDeviation="12" result="effect1_foregroundBlur_5_54" />
        </filter>
        <filter id="filter1_b_5_54" x="10.405" y="9.40479" width="56.595" height="56.5952"
            filterUnits="userSpaceOnUse" color-interpolation-filters="sRGB">
            <feFlood flood-opacity="0" result="BackgroundImageFix" />
            <feGaussianBlur in="BackgroundImageFix" stdDeviation="7.5" />
            <feComposite in2="SourceAlpha" operator="in" result="effect1_backgroundBlur_5_54" />
            <feBlend mode="normal" in="SourceGraphic" in2="effect1_backgroundBlur_5_54"
                result="shape" />
        </filter>
        <filter id="filter2_bd_5_54" x="17.4876" y="16.4878" width="42.4297" height="42.4297"
            filterUnits="userSpaceOnUse" color-interpolation-filters="sRGB">
            <feFlood flood-opacity="0" result="BackgroundImageFix" />
            <feGaussianBlur in="BackgroundImageFix" stdDeviation="7.5" />
            <feComposite in2="SourceAlpha" operator="in" result="effect1_backgroundBlur_5_54" />
            <feColorMatrix in="SourceAlpha" type="matrix"
                values="0 0 0 0 0 0 0 0 0 0 0 0 0 0 0 0 0 0 127 0" result="hardAlpha" />
            <feOffset dx="5" dy="5" />
            <feGaussianBlur stdDeviation="5" />
            <feComposite in2="hardAlpha" operator="out" />
            <feColorMatrix type="matrix"
                values="0 0 0 0 0.0666667 0 0 0 0 0.0666667 0 0 0 0 0.0666667 0 0 0 0.5 0" />
            <feBlend mode="normal" in2="effect1_backgroundBlur_5_54"
                result="effect2_dropShadow_5_54" />
            <feBlend mode="normal" in="SourceGraphic" in2="effect2_dropShadow_5_54" result="shape" />
        </filter>
        <linearGradient id="paint0_linear_5_54" x1="19" y1="24.7109" x2="45.1641" y2="50.8751"
            gradientUnits="userSpaceOnUse">
            <stop stop-color="#707070" />
            <stop offset="1" stop-color="#1C1C1C" />
        </linearGradient>
        <linearGradient id="paint1_linear_5_54" x1="51" y1="25.4048" x2="26.405" y2="49.3033"
            gradientUnits="userSpaceOnUse">
            <stop stop-color="#6C6C6C" />
            <stop offset="1" stop-color="#1D1D1D" />
        </linearGradient>
        <linearGradient id="paint2_linear_5_54" x1="26.405" y1="25.4048" x2="51" y2="49.9998"
            gradientUnits="userSpaceOnUse">
            <stop stop-color="white" stop-opacity="0.25" />
            <stop offset="1" stop-color="white" stop-opacity="0" />
        </linearGradient>
        <linearGradient id="paint3_linear_5_54" x1="45.7141" y1="27.5039" x2="30.5753" y2="45.9892"
            gradientUnits="userSpaceOnUse">
            <stop stop-color="white" />
            <stop offset="0.882869" stop-color="white" stop-opacity="0.2" />
        </linearGradient>
        <linearGradient id="paint4_linear_5_54" x1="35.0373" y1="42.8021" x2="42.2083" y2="32.7626"
            gradientUnits="userSpaceOnUse">
            <stop stop-color="white" stop-opacity="0.25" />
            <stop offset="1" stop-color="white" stop-opacity="0" />
        </linearGradient>
    </defs>
</svg>