<svg width="64" height="65" viewBox="0 0 64 65" fill="none" xmlns="http://www.w3.org/2000/svg">
<g id="LinkedIn ">
<rect id="Rectangle 1" width="24.4797" height="25.352" rx="12.2399" transform="matrix(0.963885 -0.26632 0.246994 0.969017 20 25.5195)" fill="url(#paint0_linear_5_49)"/>
<g id="Rectangle 3" filter="url(#filter0_f_5_49)">
<rect width="14.7898" height="15.3168" rx="7.39491" transform="matrix(0.963885 -0.26632 0.246994 0.969017 22.7991 27.2114)" fill="#1F5697"/>
</g>
<g id="Rectangle 4" filter="url(#filter1_b_5_49)">
<rect x="27.5876" y="25.583" width="24.4124" height="25.4168" rx="12.2062" fill="url(#paint1_linear_5_49)" fill-opacity="0.4"/>
<rect x="27.0876" y="25.083" width="25.4124" height="26.4168" rx="12.7062" stroke="url(#paint2_linear_5_49)"/>
</g>
<g id="LinkedIn Logomark" filter="url(#filter2_bd_5_49)">
<path d="M46.5556 45.3328H43.7801V40.7996C43.7801 39.7186 43.7616 38.3271 42.3366 38.3271C40.891 38.3271 40.6699 39.5048 40.6699 40.7209V45.3325H37.8944V36.0104H40.5589V37.2844H40.5961C40.8628 36.8089 41.2481 36.4177 41.711 36.1525C42.174 35.8873 42.6972 35.7581 43.225 35.7785C46.038 35.7785 46.5567 37.7083 46.5567 40.2189L46.5556 45.3328ZM34.7628 34.7361C34.4442 34.7362 34.1328 34.6377 33.8679 34.4532C33.603 34.2687 33.3966 34.0063 33.2746 33.6994C33.1526 33.3925 33.1207 33.0547 33.1828 32.7289C33.2449 32.403 33.3982 32.1037 33.6234 31.8687C33.8486 31.6337 34.1356 31.4737 34.448 31.4088C34.7604 31.3439 35.0843 31.3771 35.3786 31.5042C35.6729 31.6313 35.9245 31.8466 36.1015 32.1228C36.2786 32.399 36.3731 32.7238 36.3731 33.056C36.3732 33.2766 36.3316 33.495 36.2506 33.6989C36.1697 33.9027 36.0511 34.0879 35.9016 34.2439C35.7521 34.3999 35.5745 34.5237 35.3791 34.6081C35.1837 34.6926 34.9743 34.7361 34.7628 34.7361ZM36.1505 45.3328H33.3722V36.0104H36.1505V45.3328Z" fill="url(#paint3_linear_5_49)" shape-rendering="crispEdges"/>
<path d="M46.3556 45.1328H43.9801V40.7996C43.9801 40.2678 43.9779 39.6107 43.7798 39.0872C43.6787 38.82 43.5228 38.5759 43.2811 38.3998C43.0384 38.2228 42.7265 38.1271 42.3366 38.1271C41.9479 38.1271 41.6268 38.2064 41.3663 38.3569C41.1049 38.5079 40.9172 38.7232 40.7843 38.9745C40.5236 39.4677 40.4699 40.1096 40.4699 40.7209V45.1325H38.0944V36.2104H40.3589V37.2844V37.4844H40.5589H40.5961H40.7133L40.7706 37.3822C41.0199 36.9375 41.3796 36.5728 41.8105 36.3261C42.2412 36.0793 42.7274 35.9594 43.2173 35.9784L43.2173 35.9785H43.225C44.5786 35.9785 45.3376 36.4377 45.7746 37.1607C46.2253 37.9063 46.3567 38.9674 46.3567 40.2188C46.3567 40.2188 46.3567 40.2188 46.3567 40.2189L46.3556 45.1328ZM34.7628 34.5361C34.4857 34.5362 34.2141 34.4506 33.9823 34.2891C33.7503 34.1275 33.5683 33.8969 33.4605 33.6256C33.3526 33.3541 33.3242 33.055 33.3792 32.7663C33.4342 32.4776 33.5699 32.2136 33.7678 32.0071C33.9656 31.8007 34.2167 31.6611 34.4887 31.6046C34.7606 31.5482 35.0426 31.577 35.2993 31.6878C35.5562 31.7987 35.7771 31.9872 35.9331 32.2307C36.0893 32.4743 36.1731 32.7615 36.1731 33.056C36.1732 33.2515 36.1363 33.4449 36.0648 33.6251C35.9932 33.8052 35.8886 33.9684 35.7572 34.1055C35.6258 34.2426 35.4703 34.3508 35.2998 34.4246C35.1293 34.4983 34.9468 34.5361 34.7628 34.5361ZM35.9505 45.1328H33.5722V36.2104H35.9505V45.1328Z" stroke="url(#paint4_linear_5_49)" stroke-width="0.4" shape-rendering="crispEdges"/>
</g>
</g>
<defs>
<filter id="filter0_f_5_49" x="0.393555" y="0.974609" width="62.85" height="63.3774" filterUnits="userSpaceOnUse" color-interpolation-filters="sRGB">
<feFlood flood-opacity="0" result="BackgroundImageFix"/>
<feBlend mode="normal" in="SourceGraphic" in2="BackgroundImageFix" result="shape"/>
<feGaussianBlur stdDeviation="12" result="effect1_foregroundBlur_5_49"/>
</filter>
<filter id="filter1_b_5_49" x="11.5876" y="9.58301" width="56.4124" height="57.417" filterUnits="userSpaceOnUse" color-interpolation-filters="sRGB">
<feFlood flood-opacity="0" result="BackgroundImageFix"/>
<feGaussianBlur in="BackgroundImageFix" stdDeviation="7.5"/>
<feComposite in2="SourceAlpha" operator="in" result="effect1_backgroundBlur_5_49"/>
<feBlend mode="normal" in="SourceGraphic" in2="effect1_backgroundBlur_5_49" result="shape"/>
</filter>
<filter id="filter2_bd_5_49" x="18.1519" y="16.3765" width="43.4048" height="43.9565" filterUnits="userSpaceOnUse" color-interpolation-filters="sRGB">
<feFlood flood-opacity="0" result="BackgroundImageFix"/>
<feGaussianBlur in="BackgroundImageFix" stdDeviation="7.5"/>
<feComposite in2="SourceAlpha" operator="in" result="effect1_backgroundBlur_5_49"/>
<feColorMatrix in="SourceAlpha" type="matrix" values="0 0 0 0 0 0 0 0 0 0 0 0 0 0 0 0 0 0 127 0" result="hardAlpha"/>
<feOffset dx="5" dy="5"/>
<feGaussianBlur stdDeviation="5"/>
<feComposite in2="hardAlpha" operator="out"/>
<feColorMatrix type="matrix" values="0 0 0 0 0.1325 0 0 0 0 0.345924 0 0 0 0 0.6 0 0 0 0.5 0"/>
<feBlend mode="normal" in2="effect1_backgroundBlur_5_49" result="effect2_dropShadow_5_49"/>
<feBlend mode="normal" in="SourceGraphic" in2="effect2_dropShadow_5_49" result="shape"/>
</filter>
<linearGradient id="paint0_linear_5_49" x1="0" y1="0" x2="25.3364" y2="24.4647" gradientUnits="userSpaceOnUse">
<stop stop-color="#5C8DC8"/>
<stop offset="1" stop-color="#2867B2"/>
</linearGradient>
<linearGradient id="paint1_linear_5_49" x1="52" y1="25.583" x2="26.6332" y2="49.2573" gradientUnits="userSpaceOnUse">
<stop stop-color="#598ECC"/>
<stop offset="1" stop-color="#2867B2"/>
</linearGradient>
<linearGradient id="paint2_linear_5_49" x1="27.5876" y1="25.583" x2="52.9838" y2="49.9755" gradientUnits="userSpaceOnUse">
<stop stop-color="white" stop-opacity="0.25"/>
<stop offset="1" stop-color="white" stop-opacity="0"/>
</linearGradient>
<linearGradient id="paint3_linear_5_49" x1="47.416" y1="26.9033" x2="30.2957" y2="46.9819" gradientUnits="userSpaceOnUse">
<stop stop-color="white"/>
<stop offset="0.882869" stop-color="white" stop-opacity="0.2"/>
</linearGradient>
<linearGradient id="paint4_linear_5_49" x1="35.9016" y1="44.0803" x2="44.0533" y2="33.1189" gradientUnits="userSpaceOnUse">
<stop stop-color="white" stop-opacity="0.25"/>
<stop offset="1" stop-color="white" stop-opacity="0"/>
</linearGradient>
</defs>
</svg>
